<?xml version="1.0" encoding="UTF-8"?><!--Generator: Apple Native CoreSVG 232.5--><!DOCTYPE svg PUBLIC "-//W3C//DTD SVG 1.1//EN" "http://www.w3.org/Graphics/SVG/1.1/DTD/svg11.dtd">
<svg version="1.1"
    xmlns="http://www.w3.org/2000/svg"
    xmlns:xlink="http://www.w3.org/1999/xlink" width="30.2578" height="22.9102">
    <g transform="scale(0.7)">
        <rect height="22.9102" opacity="0" width="30.2578" x="0" y="0"/>
        <path d="M13.6992 19.6758C13.6992 20.5312 13.0312 21.1992 12.1758 21.1992C11.332 21.1992 10.6523 20.5312 10.6523 19.6758C10.6523 18.832 11.332 18.1523 12.1758 18.1523C13.0312 18.1523 13.6992 18.832 13.6992 19.6758ZM22.3945 19.6758C22.3945 20.5312 21.7148 21.1992 20.8711 21.1992C20.0156 21.1992 19.3359 20.5312 19.3359 19.6758C19.3359 18.832 20.0156 18.1523 20.8711 18.1523C21.7148 18.1523 22.3945 18.832 22.3945 19.6758ZM9.43359 4.24219L9.57422 5.22656L18.1405 5.22656C18.0918 5.50858 18.0703 5.79888 18.0703 6.09375C18.0703 9.44531 20.8125 12.1875 24.1641 12.1875C24.2268 12.1875 24.2893 12.1865 24.35 12.1779C23.982 12.9649 23.3149 13.4297 22.3008 13.4297L10.7578 13.4297L10.8867 14.25C10.957 14.7656 11.2734 15.1289 11.7539 15.1289L22.2188 15.1289C22.6289 15.1289 22.9805 15.4688 22.9805 15.9258C22.9805 16.3711 22.6289 16.7109 22.2188 16.7109L11.6016 16.7109C10.1836 16.7109 9.44531 15.832 9.23438 14.4492L7.80469 4.59375L4.81641 4.59375C4.40625 4.59375 4.04297 4.23047 4.04297 3.80859C4.04297 3.375 4.40625 3.02344 4.81641 3.02344L7.96875 3.02344C9.03516 3.02344 9.31641 3.42188 9.43359 4.24219Z" fill="#ffffff" fill-opacity="0.85"/>
        <path d="M28.8867 6.09375C28.8867 8.67188 26.7188 10.8164 24.1641 10.8164C21.5742 10.8164 19.4414 8.69531 19.4414 6.09375C19.4414 3.50391 21.5742 1.37109 24.1641 1.37109C26.7539 1.37109 28.8867 3.50391 28.8867 6.09375ZM23.3672 8.40234C23.3672 8.80078 23.6953 9.12891 24.082 9.12891C24.4922 9.12891 24.7969 8.80078 24.7969 8.40234C24.8086 8.01562 24.4922 7.6875 24.082 7.6875C23.6953 7.6875 23.3672 8.01562 23.3672 8.40234ZM22.3477 4.25391C22.3477 4.55859 22.5586 4.75781 22.8633 4.75781C23.1328 4.75781 23.2617 4.59375 23.4492 4.40625C23.6602 4.19531 23.8945 4.01953 24.293 4.01953C24.75 4.01953 25.043 4.26562 25.043 4.64062C25.043 5.03906 24.7852 5.21484 24.293 5.55469C23.8945 5.82422 23.5547 6.12891 23.5547 6.72656C23.5547 6.72656 23.5547 6.73828 23.5547 6.75C23.5547 7.08984 23.7539 7.27734 24.082 7.27734C24.4336 7.27734 24.5977 7.11328 24.6328 6.80859C24.668 6.44531 24.8672 6.28125 25.2305 6.01172C25.7578 5.625 26.2148 5.32031 26.2148 4.58203C26.2148 3.65625 25.4531 3.02344 24.293 3.02344C23.3203 3.02344 22.3477 3.51562 22.3477 4.25391Z" fill="#ffffff" fill-opacity="0.85"/>
    </g>
</svg>